<?xml version="1.0" encoding="UTF-8" standalone="no"?>
<svg
   viewBox="0 0 50 50"
   width="50px"
   height="50px"
   version="1.1"
   id="svg89"
   sodipodi:docname="java.svg"
   inkscape:version="1.1.2 (0a00cf5339, 2022-02-04)"
   xmlns:inkscape="http://www.inkscape.org/namespaces/inkscape"
   xmlns:sodipodi="http://sodipodi.sourceforge.net/DTD/sodipodi-0.dtd"
   xmlns="http://www.w3.org/2000/svg"
   xmlns:svg="http://www.w3.org/2000/svg">
  <defs
     id="defs93" />
  <sodipodi:namedview
     id="namedview91"
     pagecolor="#ffffff"
     bordercolor="#666666"
     borderopacity="1.0"
     inkscape:pageshadow="2"
     inkscape:pageopacity="0.0"
     inkscape:pagecheckerboard="0"
     showgrid="false"
     inkscape:zoom="16.14"
     inkscape:cx="39.931846"
     inkscape:cy="20.848823"
     inkscape:window-width="1850"
     inkscape:window-height="1016"
     inkscape:window-x="0"
     inkscape:window-y="0"
     inkscape:window-maximized="1"
     inkscape:current-layer="svg89" />
  <path
     d="M 27.805018,0.00505619 C 30.50859,6.3147959 18.112099,10.211419 16.960009,15.467599 15.903926,20.297707 24.325706,25.910238 24.333387,25.910238 23.054567,23.911572 22.113693,22.265385 20.831032,19.155059 18.661263,13.895006 34.045507,9.1346183 27.805018,0.00505619 Z m 8.233605,8.73835071 c 0,0 -10.875732,0.7049561 -11.428735,7.7157781 -0.245779,3.121946 2.861024,4.76426 2.949351,7.034062 0.07297,1.855351 -1.843344,3.408577 -1.843344,3.408577 0,0 3.486993,-0.670095 4.577638,-3.501538 1.209695,-3.141313 -2.357944,-5.263927 -1.996956,-7.777752 0.345627,-2.40537 7.742046,-6.8791271 7.742046,-6.8791271 z M 18.956966,24.949639 c 0,0 -9.9540597,-0.143315 -9.9540597,2.695874 0,2.967012 13.0301397,3.187794 22.3351887,1.363431 0,0 2.473154,-1.715909 3.133685,-2.355017 -6.098397,1.254976 -20.000286,1.394418 -20.000286,0.309871 0,-0.999332 4.485472,-2.014159 4.485472,-2.014159 z m 19.140058,0 c -0.975436,0.07747 -2.027679,0.45706 -2.980073,1.146521 2.242735,-0.488046 4.147525,0.914118 4.147525,2.509952 0,3.594499 -5.161365,6.972088 -5.161365,6.972088 0,0 7.987826,-0.914118 7.987826,-6.817153 0,-2.68038 -1.847184,-3.981837 -3.993913,-3.811408 z m -21.536406,5.515697 c -1.528439,0 -3.809578,1.208495 -3.809578,2.355016 0,2.304663 11.490179,4.078672 20.000286,0.712702 l -2.949351,-1.828236 c -5.768131,1.863097 -16.390404,1.254976 -13.241357,-1.239482 z m 1.413231,5.174838 c -2.092964,0 -3.471632,1.274343 -3.471632,2.231069 0,2.959264 12.500179,3.257514 17.450326,0.247896 L 28.818858,36.10498 c -3.69821,1.576467 -12.980217,1.816616 -10.845009,-0.464806 z m -6.973986,2.664888 c -3.4101873,-0.06972 -5.6222005,1.475758 -5.6222005,2.757848 0,6.817153 34.9006525,6.503409 34.9006525,-0.464806 0,-1.158142 -1.324904,-1.719782 -1.812622,-1.983172 2.853344,6.662218 -28.5718369,6.131565 -28.5718369,2.200081 0,-0.894751 2.3118609,-1.750768 4.4547489,-1.332443 l -1.812622,-1.05356 c -0.533802,-0.08134 -1.048402,-0.112328 -1.53612,-0.123948 z m 32.965141,4.586084 c -5.307295,5.074132 -18.756029,6.913988 -32.289249,3.780422 13.52938,5.585418 32.223964,2.451851 32.289249,-3.780422 z"
     id="path564"
     style="stroke-width:0.987342;fill:#ffffff" />
</svg>
