<?xml version="1.0" encoding="UTF-8" standalone="no"?>
<svg
   viewBox="0 0 50 50"
   width="50px"
   height="50px"
   version="1.1"
   id="svg89"
   sodipodi:docname="mysql.svg"
   inkscape:version="1.1.2 (0a00cf5339, 2022-02-04)"
   xmlns:inkscape="http://www.inkscape.org/namespaces/inkscape"
   xmlns:sodipodi="http://sodipodi.sourceforge.net/DTD/sodipodi-0.dtd"
   xmlns="http://www.w3.org/2000/svg"
   xmlns:svg="http://www.w3.org/2000/svg">
  <defs
     id="defs93" />
  <sodipodi:namedview
     id="namedview91"
     pagecolor="#ffffff"
     bordercolor="#666666"
     borderopacity="1.0"
     inkscape:pageshadow="2"
     inkscape:pageopacity="0.0"
     inkscape:pagecheckerboard="0"
     showgrid="false"
     inkscape:zoom="4"
     inkscape:cx="44.125"
     inkscape:cy="60.125"
     inkscape:window-width="1850"
     inkscape:window-height="1016"
     inkscape:window-x="0"
     inkscape:window-y="0"
     inkscape:window-maximized="1"
     inkscape:current-layer="svg89" />
  <path
     d="m 4.7966305,0.90196537 c -2.0189891,0 -3.614429,1.07077723 -4.36987833,2.92485923 C 0.18830661,4.3995402 0.06772618,5.0069013 0.06549788,5.6330999 0.06330294,7.7078002 1.4003128,9.3917882 2.2025597,10.399054 c 0.1403928,0.176049 0.2667181,0.332877 0.400426,0.522296 l 0.3612563,0.478772 c 0.3587825,0.470206 0.7673585,1.003505 0.8966094,1.270921 0.042341,0.122566 0.098342,0.337474 0.17411,0.609346 0.3498689,1.259082 1.0028425,3.599109 2.0413068,5.379653 0.4189514,0.717565 1.008554,1.619467 1.4319623,2.25458 -0.283015,1.417303 -0.7616825,4.028018 -0.7616825,5.614684 0,2.785581 0.5776603,5.022681 1.8367428,7.06841 0.465749,0.730938 1.8870212,2.959681 4.2915342,2.959681 0.853502,0 2.271713,-0.333399 2.655009,-2.450441 1.704774,2.199495 4.587501,4.957463 9.044429,6.907369 0,0 -8.354965,-9.748556 -9.823523,-15.825578 0,-3e-6 -1.598192,1.619954 -2.955327,4.926994 -0.405581,-1.020637 -0.591936,-2.17136 -0.591936,-3.586435 0,-1.397246 0.614639,-4.520719 0.853085,-5.60598 L 12.265481,19.97884 11.717069,19.182338 C 11.708155,19.166738 10.585601,17.546124 9.9282048,16.41852 9.1794406,15.134923 8.6272338,13.148666 8.3308481,12.08346 8.1859979,11.564228 8.0722059,11.188453 7.9652395,10.934407 7.5752582,10.089819 7.0042142,9.3480544 6.5028097,8.6928861 L 6.2242517,8.322926 C 6.0838584,8.1201358 5.8983744,7.8851372 5.6888987,7.6221784 5.2810897,7.1096316 4.5219144,6.1545255 4.544199,5.5416978 l 0.2480905,-0.1740988 0.00447,-0.00871 c 1.7716293,0 4.0537529,1.2576199 4.9139402,1.732283 0.2807864,0.1537641 0.4870933,0.259999 0.5962883,0.3090252 l 0.387369,0.1697467 0.761682,0.026115 c 0.996125,0.022285 4.023772,0.093107 6.163098,0.9488385 3.902039,1.5599246 6.05947,3.1213826 8.25228,5.9715886 5.178951,6.734418 7.089755,15.455756 7.107582,15.542665 l 0.278558,1.257865 1.218692,0.396075 c 0.04234,0.0156 3.453146,1.155391 6.633165,4.134847 -4.000094,0.989438 -5.392711,2.937917 -5.392711,2.937917 0,0 1.06075,2.068015 6.128278,5.292603 3.064139,1.949906 4.735486,3.342696 7.24251,5.849719 0,0 -2.50549,-5.571578 -6.006408,-10.010681 2.665242,-0.8535 5.941119,-1.297036 5.941119,-1.297036 l -2.028258,-2.8117 C 43.6557,31.180243 39.178957,28.844357 37.048545,27.935144 36.308695,25.113909 34.074242,17.870878 29.405609,11.800541 26.733681,8.3263647 23.890438,6.2487393 19.273061,4.4013424 16.538735,3.3093947 13.250914,3.1791346 11.786813,3.1434786 10.505446,2.4392835 7.6580947,0.9019564 4.7967464,0.9019564 Z M 13.849767,9.8158231 c 0,0 -0.974953,0 -2.089186,0.2785579 l 3.06414,4.174019 c 0.835673,-1.109776 0.835673,-2.406917 0.835673,-2.406917 0,0 -0.556001,-1.488544 -1.810627,-2.0456599 z"
     id="path743"
     style="stroke-width:2.22846;fill:#ffffff" />
</svg>
