<?xml version="1.0" encoding="UTF-8" standalone="no"?>
<svg
   viewBox="0 0 50 50"
   width="50px"
   height="50px"
   version="1.1"
   id="svg89"
   sodipodi:docname="next.svg"
   inkscape:version="1.1.2 (0a00cf5339, 2022-02-04)"
   xmlns:inkscape="http://www.inkscape.org/namespaces/inkscape"
   xmlns:sodipodi="http://sodipodi.sourceforge.net/DTD/sodipodi-0.dtd"
   xmlns="http://www.w3.org/2000/svg"
   xmlns:svg="http://www.w3.org/2000/svg">
  <defs
     id="defs93" />
  <sodipodi:namedview
     id="namedview91"
     pagecolor="#ffffff"
     bordercolor="#666666"
     borderopacity="1.0"
     inkscape:pageshadow="2"
     inkscape:pageopacity="0.0"
     inkscape:pagecheckerboard="0"
     showgrid="false"
     inkscape:zoom="4"
     inkscape:cx="44.125"
     inkscape:cy="60.125"
     inkscape:window-width="1850"
     inkscape:window-height="1016"
     inkscape:window-x="0"
     inkscape:window-y="0"
     inkscape:window-maximized="1"
     inkscape:current-layer="svg89" />
  <path
     fill="#212121"
     d="m 18.820189,34.571654 c 0,0.991376 -0.803398,1.795972 -1.795971,1.795972 -0.992573,0 -1.795972,-0.804596 -1.795972,-1.795972 V 17.809253 c 0,-0.781847 0.506464,-1.473895 1.251193,-1.712161 0.748322,-0.237069 1.558904,0.03592 2.010291,0.674088 l 20.087345,28.381142 c 6.156591,-4.343856 10.207107,-11.496613 10.207107,-19.560526 0,-13.170459 -10.77583,-23.9462883 -23.94629,-23.9462883 -13.17046,0 -23.94629034,10.7758293 -23.94629034,23.9462883 0,13.17046 10.77583034,23.94629 23.94629034,23.94629 3.821828,0 7.430533,-0.930314 10.644125,-2.540702 L 18.820189,23.455786 Z M 30.793334,16.611938 c 0,-0.991376 0.803398,-1.795972 1.795971,-1.795972 0.992574,0 1.795972,0.804596 1.795972,1.795972 V 33.18277 l -3.591943,-5.061048 z"
     id="path914"
     style="fill:#ffffff;stroke-width:1.19731" />
</svg>
