<?xml version="1.0" encoding="UTF-8" standalone="no"?>
<svg
   viewBox="0 0 50 50"
   width="50px"
   height="50px"
   version="1.1"
   id="svg89"
   sodipodi:docname="postman.svg"
   inkscape:version="1.1.2 (0a00cf5339, 2022-02-04)"
   xmlns:inkscape="http://www.inkscape.org/namespaces/inkscape"
   xmlns:sodipodi="http://sodipodi.sourceforge.net/DTD/sodipodi-0.dtd"
   xmlns="http://www.w3.org/2000/svg"
   xmlns:svg="http://www.w3.org/2000/svg">
  <defs
     id="defs93" />
  <sodipodi:namedview
     id="namedview91"
     pagecolor="#ffffff"
     bordercolor="#666666"
     borderopacity="1.0"
     inkscape:pageshadow="2"
     inkscape:pageopacity="0.0"
     inkscape:pagecheckerboard="0"
     showgrid="false"
     inkscape:zoom="4"
     inkscape:cx="44.125"
     inkscape:cy="60.125"
     inkscape:window-width="1850"
     inkscape:window-height="1016"
     inkscape:window-x="0"
     inkscape:window-y="0"
     inkscape:window-maximized="1"
     inkscape:current-layer="svg89" />
  <path
     d="M 25.265924,1.7319271 C 21.79449,1.7431509 18.271573,2.5158778 14.939959,4.1342488 9.2515697,6.8978152 4.8946488,11.808553 2.827116,17.784899 -1.4873057,30.229587 5.1040603,43.814469 17.549571,48.128068 29.995081,52.441667 43.579929,45.850301 47.894351,33.405613 49.987389,27.424331 49.596326,20.852505 46.808078,15.160825 42.671655,6.6472924 34.137368,1.7032442 25.265924,1.7319271 Z m -0.286029,1.6342215 c 2.53438,-0.043876 5.119481,0.3492253 7.653685,1.2276747 5.562512,1.9284905 10.132352,5.9869127 12.702576,11.2836797 2.571046,5.296768 2.930376,11.399147 1.002708,16.96248 C 42.323095,44.42409 29.677634,50.560214 18.092704,46.545268 6.5077743,42.530322 0.37247331,29.884038 4.3874196,18.299108 7.5240963,9.2483823 15.92854,3.5228494 24.979895,3.3661486 Z m 0.08677,2.7413783 c -0.686983,-0.00987 -1.373928,0.017779 -2.058444,0.081952 -0.454149,0.014809 -0.809442,0.3951185 -0.793811,0.8484454 0.01481,0.4541498 0.395119,0.8094429 0.848446,0.7938101 0.03373,-8.219e-4 0.06911,-0.00387 0.102842,-0.00964 0.618696,-0.064173 1.23963,-0.095668 1.860795,-0.093201 0.450036,-0.062528 0.763137,-0.4779699 0.70061,-0.9271832 C 25.678564,6.4528679 25.41304,6.1733438 25.066668,6.107525 Z M 19.648187,6.8675925 C 19.54199,6.8559327 19.430793,6.8656262 19.321986,6.8981234 13.532401,8.6595992 8.9303559,13.075359 6.9327556,18.787607 c -0.1612561,0.424531 0.052721,0.8993 0.4772504,1.060556 0.4245312,0.161257 0.899301,-0.05112 1.0605571,-0.475643 0.00576,-0.01399 0.01035,-0.02857 0.014464,-0.04338 l -0.028927,0.02893 C 10.278457,14.127116 14.493534,10.08052 19.794415,8.472896 20.229641,8.3429039 20.475575,7.884525 20.345583,7.4492981 20.248089,7.122878 19.966777,6.9025779 19.648186,6.8675988 Z m 16.359891,4.5314695 c -1.959755,0 -3.546437,1.58829 -3.546437,3.548044 0,1.959755 1.587505,3.549651 3.546437,3.549651 0.505159,0 0.98367,-0.109616 1.418897,-0.30049 l -2.603183,-2.689958 c -0.0543,-0.05595 -0.08364,-0.132345 -0.08038,-0.210505 0.0025,-0.07816 0.03801,-0.152244 0.09641,-0.204077 l 3.305403,-2.959916 c -0.595651,-0.453327 -1.330897,-0.732749 -2.137177,-0.732749 z m 2.571046,1.115192 -3.133459,2.807261 2.505162,2.588722 c 0.965068,-0.634329 1.603691,-1.721624 1.603691,-2.963131 0,-0.944499 -0.373974,-1.796878 -0.975394,-2.432852 z m -0.0659,1.684035 c 0.110913,-0.0067 0.220107,0.05135 0.273173,0.157477 0.01481,0.03044 0.366158,0.755682 -0.104446,1.69689 -0.05019,0.101197 -0.151795,0.159083 -0.257105,0.159083 -0.04278,0 -0.08742,-0.01 -0.128552,-0.03053 -0.142333,-0.07076 -0.20013,-0.242501 -0.128552,-0.385657 0.336498,-0.672175 0.111892,-1.165327 0.102841,-1.185895 -0.06746,-0.142333 -0.0082,-0.313334 0.133374,-0.382444 0.03538,-0.01707 0.07232,-0.0267 0.109267,-0.02893 z m -7.054309,2.884393 c -0.529017,0.02283 -1.129369,0.151216 -1.775627,0.38405 -2.571046,0.925577 -5.656302,4.319358 -5.656302,4.319358 l -2.474632,2.86993 2.031127,1.995775 9.222038,-9.318436 c -0.359946,-0.190052 -0.817567,-0.273508 -1.346586,-0.250677 z m 1.804553,0.607409 -9.270227,9.366644 1.197143,1.177861 6.961109,-7.060737 c 0.02057,-0.01975 1.52187,-1.501349 1.447824,-2.816902 -0.06829,-0.260807 -0.179529,-0.486687 -0.335849,-0.666866 z m 0.139799,2.863503 c -0.399845,0.58661 -0.811456,0.994687 -0.846834,1.028419 l -6.956288,7.054309 0.92397,0.909508 c 0.09379,-0.08556 0.184202,-0.165074 0.277994,-0.252284 5.012924,-4.648452 6.06803,-6.631282 6.601158,-8.739952 z m -12.22852,4.539504 -2.289838,2.65782 4.198841,-0.780956 z m 2.313942,2.27377 -1.446213,1.497635 2.567832,-0.395299 z m 1.632615,1.606904 -3.739266,0.575272 -6.855053,7.094481 2.876359,2.828151 0.144621,0.0032 -0.719893,-2.982414 c 0,0 3.966058,-1.801468 9.27023,-6.560989 z m 16.485231,0.830769 c -0.31528,0.05757 -0.579962,0.297316 -0.654009,0.629907 -0.09297,0.417126 0.147912,0.836618 0.555988,0.964142 l 1.587615,0.424223 c 0.443454,0.09873 0.883091,-0.180025 0.981819,-0.623479 0.09297,-0.417127 -0.149515,-0.836619 -0.557592,-0.964143 l -1.586019,-0.424222 c -0.110863,-0.02468 -0.222714,-0.02562 -0.327802,-0.0064 z m -1.398008,3.872639 c -0.319328,-0.02808 -0.639429,0.13336 -0.798628,0.433864 -0.202393,0.381749 -0.07446,0.855156 0.292449,1.083054 l 1.423718,0.819521 c 0.396558,0.226252 0.9018,0.08803 1.128052,-0.308526 0.226252,-0.396558 0.08803,-0.901795 -0.308526,-1.128047 L 40.521873,33.77038 c -0.100374,-0.05327 -0.20691,-0.08384 -0.313347,-0.0932 z m -2.641752,3.294153 c -0.210308,0 -0.419249,0.0806 -0.580094,0.241036 -0.320867,0.320867 -0.320867,0.840925 0,1.161791 l 1.161792,1.163399 c 0.320867,0.320867 0.840926,0.320867 1.161792,0 0.320867,-0.320866 0.320867,-0.842532 0,-1.163399 L 38.148472,37.212369 C 37.988039,37.051936 37.77709,36.971333 37.566774,36.971333 Z m -23.439909,0.08677 -2.235203,2.313942 4.676091,0.08517 z m 20.015596,2.468205 c -0.105697,0.01339 -0.209016,0.04768 -0.306921,0.104449 -0.390799,0.22872 -0.524346,0.731604 -0.297271,1.123226 l 0.814697,1.417289 c 0.213088,0.401495 0.709699,0.553752 1.110371,0.340663 0.401495,-0.213088 0.55375,-0.709698 0.340662,-1.11037 -0.009,-0.01646 -0.01744,-0.03419 -0.02731,-0.04982 l -0.819518,-1.423717 c -0.17154,-0.293716 -0.497615,-0.441911 -0.814705,-0.401726 z m -3.647671,1.60369 c -0.105683,-0.01547 -0.214759,-0.01092 -0.324594,0.01767 -0.0016,8.22e-4 -0.0024,0 -0.0032,0 -0.438518,0.116828 -0.700958,0.569011 -0.583307,1.007528 8.23e-4,0.0016 7.84e-4,0.0024 0.0016,0.0049 l 0.424222,1.587621 c 0.135752,0.433581 0.597267,0.674064 1.030027,0.538313 0.408076,-0.127524 0.650564,-0.545409 0.557595,-0.962535 l -0.424223,-1.587621 c -0.08577,-0.329506 -0.361064,-0.559409 -0.678113,-0.605803 z"
     id="path1088"
     style="stroke-width:0.822735;fill:#ffffff" />
</svg>
