<?xml version="1.0" encoding="UTF-8" standalone="no"?>
<svg
   viewBox="0 0 50 50"
   width="50px"
   height="50px"
   version="1.1"
   id="svg89"
   sodipodi:docname="sass.svg"
   inkscape:version="1.1.2 (0a00cf5339, 2022-02-04)"
   xmlns:inkscape="http://www.inkscape.org/namespaces/inkscape"
   xmlns:sodipodi="http://sodipodi.sourceforge.net/DTD/sodipodi-0.dtd"
   xmlns="http://www.w3.org/2000/svg"
   xmlns:svg="http://www.w3.org/2000/svg">
  <defs
     id="defs93" />
  <sodipodi:namedview
     id="namedview91"
     pagecolor="#ffffff"
     bordercolor="#666666"
     borderopacity="1.0"
     inkscape:pageshadow="2"
     inkscape:pageopacity="0.0"
     inkscape:pagecheckerboard="0"
     showgrid="false"
     inkscape:zoom="1.4142136"
     inkscape:cx="263.39727"
     inkscape:cy="-97.227182"
     inkscape:window-width="1850"
     inkscape:window-height="1016"
     inkscape:window-x="0"
     inkscape:window-y="0"
     inkscape:window-maximized="1"
     inkscape:current-layer="svg89" />
  <path
     d="m 42.475183,27.261197 c -1.675359,0.0087 -3.127272,0.411408 -4.344233,1.010777 -0.444972,-0.888026 -0.895698,-1.669605 -0.971458,-2.250753 -0.08823,-0.678007 -0.19084,-1.082702 -0.08439,-1.891132 0.106449,-0.80843 0.574437,-1.952507 0.566765,-2.037857 -0.0067,-0.08535 -0.10453,-0.496758 -1.071194,-0.50443 -0.966663,-0.0067 -1.793314,0.186044 -1.891132,0.441136 -0.09782,0.255092 -0.283862,0.829528 -0.39894,1.428898 -0.169741,0.876519 -1.929492,4.002831 -2.92972,5.637912 -0.327017,-0.638689 -0.605123,-1.200657 -0.662663,-1.645629 -0.08823,-0.678008 -0.190839,-1.082702 -0.08439,-1.891133 0.106448,-0.808429 0.574436,-1.952506 0.566763,-2.037857 -0.0067,-0.08535 -0.104529,-0.496757 -1.071193,-0.50443 -0.966664,-0.0067 -1.793314,0.186046 -1.891131,0.441137 -0.09782,0.255092 -0.201389,0.851584 -0.398941,1.428898 -0.198512,0.577313 -2.538451,5.791351 -3.151247,7.14257 -0.312632,0.688556 -0.584026,1.241894 -0.775824,1.619736 -9.59e-4,-9.59e-4 -9.59e-4,-0.002 -9.59e-4,-0.002 0,0 -0.01151,0.02494 -0.03261,0.06809 -0.163988,0.321262 -0.261804,0.499635 -0.261804,0.499635 0,0 9.59e-4,0.0029 0.0029,0.0067 -0.130423,0.235913 -0.269477,0.455522 -0.338525,0.455522 -0.04795,0 -0.144807,-0.6291 0.0211,-1.491232 0.348113,-1.808659 1.184355,-4.630013 1.176682,-4.726871 -0.0038,-0.04987 0.155357,-0.540872 -0.546625,-0.79884 -0.681844,-0.249338 -0.925427,0.166865 -0.987762,0.167824 -0.06042,9.59e-4 -0.105489,0.146725 -0.105489,0.146725 0,0 0.760481,-3.172344 -1.449995,-3.172344 -1.380948,0 -3.295096,1.51137 -4.238744,2.880811 -0.594574,0.324139 -1.868111,1.019408 -3.219331,1.761668 -0.518814,0.28482 -1.048177,0.576353 -1.550689,0.853502 -0.03453,-0.0374 -0.06809,-0.07576 -0.103571,-0.113161 C 9.5674098,27.326315 4.6151763,25.30476 4.8251955,21.462081 4.9019145,20.06483 5.3871645,16.386138 14.34223,11.923949 21.677553,8.2682729 27.550419,9.2742553 28.565032,11.503911 c 1.449995,3.184811 -3.13878,9.104667 -10.756052,9.95817 -2.902863,0.325098 -4.430537,-0.799799 -4.811257,-1.218879 -0.3999,-0.441136 -0.459357,-0.461275 -0.608959,-0.377842 -0.243585,0.135217 -0.08919,0.524568 0,0.756643 0.22728,0.591699 1.16038,1.641795 2.752306,2.163486 1.400123,0.459358 4.807421,0.711572 8.929168,-0.882272 4.615627,-1.785642 8.219517,-6.75226 7.161749,-10.903736 C 30.15502,6.7770886 23.15438,5.3894276 16.528706,7.742793 12.585336,9.1438799 8.3168636,11.342848 5.2471311,14.21311 c -3.6499224,3.41401 -4.2310714,6.384967 -3.9913235,7.625902 0.8525437,4.411362 6.9315921,7.283542 9.3664724,9.412503 -0.119875,0.06617 -0.233036,0.128506 -0.335648,0.185085 -1.2207959,0.604166 -5.8546438,3.029456 -7.0140648,5.591881 -1.3147777,2.906705 0.2090602,4.992511 1.2188785,5.273496 3.1263129,0.869806 6.3351003,-0.695269 8.0593663,-3.267285 1.724268,-2.571057 1.513289,-5.918896 0.722121,-7.447529 -0.0096,-0.01918 -0.0211,-0.0374 -0.03069,-0.05658 0.315509,-0.187003 0.636771,-0.375924 0.955157,-0.562928 0.621426,-0.364417 1.231344,-0.704859 1.760708,-0.993515 -0.296328,0.811306 -0.513061,1.783724 -0.626222,3.188647 -0.132341,1.650424 0.543749,3.783222 1.428894,4.62234 0.38935,0.369211 0.858298,0.377843 1.155585,0.377843 1.029957,0 1.499863,-0.85638 2.01676,-1.870034 0.634852,-1.242853 1.19778,-2.689013 1.19778,-2.689013 0,0 -0.706777,3.907892 1.218878,3.907892 0.701024,0 1.406841,-0.910083 1.721391,-1.373277 9.59e-4,0.0047 9.59e-4,0.0076 9.59e-4,0.0076 0,0 0.01822,-0.02973 0.05371,-0.09111 0.07289,-0.111243 0.114121,-0.182208 0.114121,-0.182208 0,0 0.002,-0.0076 0.0038,-0.02014 0.281943,-0.489086 0.907207,-1.605352 1.8451,-3.446617 1.211207,-2.378299 2.373505,-5.356927 2.373505,-5.356927 0,0 0.108366,0.728834 0.462234,1.932368 0.2081,0.708695 0.651155,1.492191 1.000228,2.243082 -0.280985,0.390309 -0.453603,0.613754 -0.453603,0.613754 0,0 0.002,0.0038 0.0047,0.01151 -0.224403,0.298246 -0.476618,0.619508 -0.740342,0.934058 -0.956114,1.139281 -2.095396,2.439674 -2.247876,2.815599 -0.179331,0.442095 -0.137135,0.768152 0.210019,1.028998 0.253174,0.19084 0.70486,0.220569 1.176683,0.188922 0.859256,-0.05754 1.46438,-0.271395 1.762627,-0.400859 0.465111,-0.163988 1.006941,-0.422915 1.515207,-0.796922 0.937894,-0.689515 1.503698,-1.676318 1.449995,-2.983424 -0.02973,-0.720202 -0.259886,-1.433692 -0.550461,-2.107864 0.08535,-0.12275 0.1707,-0.245501 0.256051,-0.371129 1.478765,-2.162526 2.625719,-4.537949 2.625719,-4.537949 0,0 0.108366,0.728834 0.462234,1.932368 0.179332,0.609919 0.5332,1.2745 0.850625,1.926614 -1.390537,1.129693 -2.252671,2.442553 -2.552835,3.303727 -0.553338,1.592885 -0.119874,2.315006 0.693351,2.478994 0.368252,0.0748 0.888986,-0.09399 1.280253,-0.259887 0.487169,-0.161111 1.072154,-0.430587 1.618779,-0.832404 0.937894,-0.689515 1.840305,-1.655221 1.785642,-2.962326 -0.02493,-0.594575 -0.186044,-1.185314 -0.404694,-1.753037 1.178601,-0.491004 2.705316,-0.764316 4.649191,-0.537035 4.170655,0.487167 4.988676,3.09083 4.83236,4.180244 -0.156316,1.090374 -1.030916,1.688785 -1.323409,1.870035 -0.292492,0.181249 -0.381679,0.243583 -0.356745,0.377842 0.03548,0.195634 0.170701,0.187962 0.420039,0.145767 0.343319,-0.05754 2.189378,-0.886108 2.268974,-2.898073 0.09974,-2.549 -2.347612,-5.354051 -6.682254,-5.331035 z M 10.331702,38.097803 C 8.9507541,39.604379 7.0203038,40.17402 6.1926939,39.694525 5.2989137,39.176669 5.6527817,36.957563 7.348279,35.358922 c 1.032834,-0.974334 2.3667918,-1.871951 3.251941,-2.425289 0.201388,-0.120833 0.496758,-0.299206 0.85638,-0.514979 0.05946,-0.03356 0.09303,-0.05275 0.09303,-0.05275 l -9.59e-4,-0.002 c 0.06905,-0.04124 0.14097,-0.08439 0.213854,-0.128505 0.616631,2.276647 0.01918,4.280939 -1.430815,5.862317 z m 10.062697,-6.841447 c -0.481414,1.172848 -1.488355,4.173532 -2.101151,4.012422 -0.526487,-0.138095 -0.84679,-2.419537 -0.105489,-4.663577 0.373047,-1.129693 1.16997,-2.479953 1.638917,-3.004521 0.753767,-0.842954 1.584254,-1.119143 1.785642,-0.776784 0.257969,0.435383 -0.915837,3.696914 -1.217919,4.43246 z m 8.314458,3.967349 c -0.204266,0.106449 -0.391269,0.173578 -0.477578,0.121792 -0.06425,-0.03836 0.08439,-0.178373 0.08439,-0.178373 0,0 1.039547,-1.119143 1.449996,-1.628368 0.237829,-0.296328 0.514978,-0.648278 0.815142,-1.041464 0.0029,0.03932 0.0038,0.07864 0.0038,0.116997 -0.0038,1.34067 -1.298474,2.245 -1.875788,2.609416 z m 6.405105,-1.460544 c -0.152479,-0.108366 -0.126586,-0.458398 0.373048,-1.547813 0.196594,-0.42771 0.644442,-1.148872 1.424103,-1.837428 0.09015,0.282903 0.145767,0.554298 0.143849,0.807471 -0.01055,1.686867 -1.214084,2.316924 -1.941,2.57777 z"
     id="path1235"
     style="stroke-width:0.958991;fill:#ffffff" />
</svg>
