<?xml version="1.0" encoding="UTF-8" standalone="no"?>
<svg
   viewBox="0 0 50 50"
   width="50px"
   height="50px"
   version="1.1"
   id="svg89"
   sodipodi:docname="typescript.svg"
   inkscape:version="1.1.2 (0a00cf5339, 2022-02-04)"
   xmlns:inkscape="http://www.inkscape.org/namespaces/inkscape"
   xmlns:sodipodi="http://sodipodi.sourceforge.net/DTD/sodipodi-0.dtd"
   xmlns="http://www.w3.org/2000/svg"
   xmlns:svg="http://www.w3.org/2000/svg">
  <defs
     id="defs93" />
  <sodipodi:namedview
     id="namedview91"
     pagecolor="#ffffff"
     bordercolor="#666666"
     borderopacity="1.0"
     inkscape:pageshadow="2"
     inkscape:pageopacity="0.0"
     inkscape:pagecheckerboard="0"
     showgrid="false"
     inkscape:zoom="8"
     inkscape:cx="7.8125"
     inkscape:cy="34.625"
     inkscape:window-width="1920"
     inkscape:window-height="1043"
     inkscape:window-x="0"
     inkscape:window-y="0"
     inkscape:window-maximized="1"
     inkscape:current-layer="svg89" />
  <path
     d="M 47.975783,1.0907019 H 1.7629855 c -0.6388919,0 -1.15531987,0.5175833 -1.15531987,1.15532 V 48.45882 c 0,0.637736 0.51642797,1.15532 1.15531987,1.15532 H 47.975783 c 0.638892,0 1.15532,-0.517584 1.15532,-1.15532 V 2.2460219 c 0,-0.6377367 -0.516428,-1.15532 -1.15532,-1.15532 z M 29.490664,27.021858 H 23.714065 V 44.99286 h -4.62128 V 27.021858 h -5.776601 v -3.980077 h 16.17448 z m 1.295113,16.945079 v -4.803821 c 0,0 2.623731,1.977908 5.771979,1.977908 3.148246,0 3.026938,-2.058781 3.026938,-2.340679 0,-2.987657 -8.920225,-2.987657 -8.920225,-9.606485 0,-9.001098 12.997349,-5.449644 12.997349,-5.449644 l -0.161745,4.279304 c 0,0 -2.180088,-1.453392 -4.642075,-1.453392 -2.461987,0 -3.350428,1.170339 -3.350428,2.421551 0,3.229119 9.001097,2.906785 9.001097,9.405459 0.0011,10.009692 -13.72289,5.569799 -13.72289,5.569799 z"
     id="path1537"
     style="stroke-width:1.15531;fill:#ffffff" />
</svg>
